<?xml version="1.0" encoding="utf-8"?>
<!-- Generator: Adobe Illustrator 25.2.3, SVG Export Plug-In . SVG Version: 6.00 Build 0)  -->
<svg version="1.1" id="Camada_1" xmlns="http://www.w3.org/2000/svg" xmlns:xlink="http://www.w3.org/1999/xlink" x="0px" y="0px"
	 viewBox="0 0 1080 193" style="enable-background:new 0 0 1080 193;" xml:space="preserve">
<style type="text/css">
	.st0{fill:#233969;}
	.st1{fill:#ff9421;}
</style>
<g>
	<path class="st0" d="M176.6,161c0,6.3-4.2,9.5-12.5,9.5h-21.3c-7.5,0-9.7-3.1-14.1-7.9l-38.1-41c-3.6-3.8-7.5-9.4-9.5-14.4h-2.2
		c1,5.1,1.7,10.5,1.7,15.3v48h-16c-9.7,0-17.5-7.8-17.5-17.5V87.3c0-6.3,4.4-9.5,12.5-9.5h21.3c7.3,0,9.7,3.2,14.1,7.9l36.6,39.5
		c3.9,4,7.8,9.1,11,14.5h2.5c-1-5.2-1.7-10.2-1.7-15.5V77.8h15.7c9.7,0,17.5,7.8,17.5,17.5V161z"/>
	<path class="st0" d="M295.4,107.8c0,24.3-13.5,31.2-51.6,31.2c-9.7,0-19.3-0.5-28.1-1.3v32.9h-24.1c-6.1,0-11.1-5-11.1-11.1V77.8
		c18.5-1.2,31-1.3,58.6-1.3C281.8,76.4,295.4,83.3,295.4,107.8z M238.3,119.3c16.8,0,21.7-2.3,21.7-11.6c0-9.4-4.9-11.8-21.7-11.8
		h-22.7v23.4H238.3z"/>
	<path class="st0" d="M409.4,107.8c0,24.3-13.5,31.2-51.6,31.2c-9.7,0-19.3-0.5-28.1-1.3v32.9h-24.1c-6.1,0-11.1-5-11.1-11.1V77.8
		c18.5-1.2,31-1.3,58.6-1.3C395.8,76.4,409.4,83.3,409.4,107.8z M352.3,119.3c16.8,0,21.7-2.3,21.7-11.6c0-9.4-4.9-11.8-21.7-11.8
		h-22.7v23.4H352.3z"/>
	<path class="st1" d="M528.5,78.7l-1.7,6.6c-12.5-0.9-20.8-1.2-37.8-1.2c-34.2,0-45.7,9.9-45.7,40.1c0,30.1,11.5,40.1,45.7,40.1
		c17.9,0,29.1-0.4,41-1.5l1.5,6.6c-12,2-23.5,2.8-42.5,2.8c-42.3,0-57.2-12.6-57.2-48c0-35.4,14.9-48,57.2-48
		C507,76.2,516.6,76.8,528.5,78.7z"/>
	<path class="st1" d="M669.9,124.2c0,35.9-14.9,48-57.4,48c-42.5,0-57.4-12.1-57.4-48s14.9-48,57.4-48
		C655,76.2,669.9,88.3,669.9,124.2z M566.6,124.2c0,30.1,11.5,40.2,45.9,40.2c34.2,0,45.9-10.1,45.9-40.2
		c0-30.1-11.7-40.2-45.9-40.2C578.1,84,566.6,94,566.6,124.2z"/>
	<path class="st1" d="M702.9,170.5V77.8h10.8v92.8H702.9z"/>
	<path class="st1" d="M779.1,85.2c-10.3,0-16.6,3.4-16.6,9.8v23.8h67.6v7.1l-67.6,0.1v44.5h-11V93.4c0-9.7,10.2-15.7,25.1-15.7
		c21,0,42.5,0,62.8,0.8l-0.5,6.7H779.1z"/>
	<path class="st1" d="M871,139.9l-17.6,30.7h-11.5l52.2-90.2c0.7-1.6,2.4-2.6,4.6-2.6h13.9c2,0,3.9,0.9,4.6,2.6l52,90.2h-11.5
		l-17.4-30.7H871z M912.9,92.3c-1.5-2.6-2.9-5.1-4.2-7.5h-6.3l-4.1,7.5l-22.9,39.9h60.3L912.9,92.3z"/>
	<path class="st1" d="M1073.6,78.4l-0.8,6.5c-13-0.4-27.6-0.8-41.3-0.8c-25.7,0-36.4,0.5-36.4,16.5c0,11.4,6.3,15.3,22,17.1l32.3,4
		c22.7,2.8,30.6,10.5,30.6,25.4c0,21.7-15.9,24.9-47.9,24.9c-11.3,0-26.2-0.1-45.5-2l0.7-6.6c20.3,0.7,30.3,0.8,45.2,0.8
		c26.8-0.1,36.4-2.4,36.4-17.2c0-12.1-6.4-15.6-22.7-17.3l-32.5-4.2c-21.7-2.7-29.6-10.6-29.6-25.1c0-21.8,15.1-24.3,47.1-24.1
		C1044.9,76.3,1059.5,76.8,1073.6,78.4z"/>
</g>
<path class="st0" d="M177.8,42.9c0-0.1,0-0.1,0-0.2v-8.5c0-7.9-6.4-14.3-14.3-14.3H60.1c-7.9,0-14.3,6.4-14.3,14.3v8.5
	c0,0.1,0,0.1,0,0.2H40v8.5h141.5v-8.5H177.8z"/>
<g>
	<path class="st1" d="M0,72.9c35.6-11.2,73.1-17.2,111.8-17.2c38.7,0,76.2,6,111.8,17.2V61c0-6.4-3.9-11.9-9.4-13.3
		c-32.9-8.7-67.2-13.4-102.5-13.4c-35.2,0-69.5,4.6-102.5,13.4C3.9,49.1,0,54.6,0,61V72.9z"/>
</g>
<circle class="st0" cx="210.6" cy="60.3" r="4"/>
</svg>
